<svg xmlns="http://www.w3.org/2000/svg" width="1280" height="640" viewBox="0 0 1280 640">
  <defs>
    <linearGradient id="bg" x1="0" y1="0" x2="1" y2="1">
      <stop offset="0%" stop-color="#222"></stop>
      <stop offset="55%" stop-color="#2f241b"></stop>
      <stop offset="100%" stop-color="#111"></stop>
    </linearGradient>
  </defs>

  <rect width="1280" height="640" fill="url(#bg)"></rect>
  <circle cx="260" cy="160" r="230" fill="#fff" opacity=".06"></circle>

  <g transform="translate(90 110)">
    <path d="M180 0C80.6 0 0 80.6 0 180c0 79.5 51.6 147 123.1 170.8 9 1.7 12.3-3.9 12.3-8.7 0-4.3-.2-18.5-.3-33.6-50.1 10.9-60.7-21.2-60.7-21.2-8.2-20.8-20-26.3-20-26.3-16.3-11.2 1.2-11 1.2-11 18.1 1.3 27.6 18.6 27.6 18.6 16 27.5 42.1 19.6 52.3 15 1.6-11.6 6.3-19.6 11.4-24.1-40-4.6-82.1-20-82.1-89 0-19.7 7-35.8 18.5-48.4-1.9-4.5-8-22.9 1.8-47.7 0 0 15.1-4.8 49.5 18.5 14.4-4 29.8-6 45.1-6s30.7 2 45.1 6c34.4-23.3 49.5-18.5 49.5-18.5 9.8 24.8 3.7 43.2 1.8 47.7 11.5 12.6 18.5 28.7 18.5 48.4 0 69.2-42.2 84.3-82.3 88.8 6.5 5.6 12.2 16.5 12.2 33.3 0 24.1-.2 43.5-.2 49.4 0 4.8 3.2 10.5 12.4 8.7C308.4 327 360 259.5 360 180 360 80.6 279.4 0 180 0z" fill="#fff" opacity=".88"></path>
  </g>

  <text x="520" y="275" fill="#fff" font-family="Arial, sans-serif" font-size="76" font-weight="700">
    GitHub Repository
  </text>

  <text x="520" y="350" fill="#fff" opacity=".7" font-family="Arial, sans-serif" font-size="34">
    Thumbnail unavailable
  </text>
</svg>